ply
format ascii 1.0
element vertex 453
property float x
property float y
property float z
element face 948
property list uchar int vertex_indices
end_header
-0.024860799312591553 0.12291300296783447 0.024542899802327156
-0.029875699430704117 0.12425199896097183 0.020967399701476097
0.030719799920916557 0.11798900365829468 -1.0306166000664234
-0.06986960023641586 0.1685360074043274 -0.031331900507211685
0.07714509963989258 0.16770599782466888 -0.9701202008873224
-0.07021089643239975 0.16530300676822662 -0.01946610026061535
-0.04296170175075531 0.043024200946092606 -0.017628800123929977
-0.042720600962638855 0.03435570001602173 -0.019130200147628784
0.05129320174455643 0.034226998686790466 -0.9870987003669143
0.028498800471425056 0.09049200266599655 -0.9709146004170179
-0.031563900411129 0.09593310207128525 -0.023680100217461586
0.029012499377131462 0.1067190021276474 -0.9792520999908447
-0.017633499577641487 0.12760500609874725 0.017936600372195244
0.019276099279522896 0.11985299736261368 -1.0328060984611511
-0.014178999699652195 0.12626999616622925 0.02664170041680336
0.029567500576376915 0.1260720044374466 -1.0146337999030948
-0.005907080136239529 0.12793399393558502 0.027462299913167953
0.006184699945151806 0.12272900342941284 -1.0347869992256165
0.05625019967556 0.13501299917697906 -1.0330455005168915
0.04791330173611641 0.12930099666118622 -1.0269645992666483
0.043538898229599 0.13001400232315063 -1.0175333004444838
-0.01744000054895878 0.1276939958333969 -1.0185348000377417
0.005821640137583017 0.1280599981546402 0.027901599183678627
0.01443449966609478 0.1270810067653656 0.02629699930548668
0.02777170017361641 0.03825629875063896 -1.032286498695612
-0.03307449817657471 0.035521700978279114 0.029223600402474403
-0.035244498401880264 0.035057101398706436 0.017825700342655182
0.038891300559043884 0.12376099824905396 -1.0249777995049953
-0.006000950001180172 0.1303980052471161 0.017898600548505783
0.08981099724769592 0.1324010044336319 -1.0070574302226305
-0.08502689749002457 0.14603400230407715 0.005859539844095707
-0.08569840341806412 0.13690300285816193 0.0019212199840694666
-0.05163170024752617 0.14500099420547485 0.018480399623513222
0.05639529973268509 0.1545650064945221 -1.0168779995292425
0.05735199898481369 0.1449889987707138 -1.0315195992588997
0.005954749882221222 0.13102400302886963 0.01782519929111004
-0.07879210263490677 0.0707772970199585 0.0068558501079678535
0.07848779857158661 0.0705282986164093 -1.0174461007118225
0.08452550321817398 0.08005719631910324 -1.0053070201538503
-0.06228480115532875 0.16235999763011932 -0.03962880000472069
-0.06826060265302658 0.17039799690246582 -0.04369949921965599
0.0674934983253479 0.12839199602603912 -0.9913652902469039
0.0803913027048111 0.12963399291038513 -0.9953024499118328
0.06796760112047195 0.142876997590065 -0.9924235697835684
-0.005974600091576576 0.13085800409317017 -1.0057947901077569
0.06885469704866409 0.12205199897289276 -1.0517568998038769
0.07065189629793167 0.1306300014257431 -1.0502496995031834
-0.07797809690237045 0.13255000114440918 0.05134940147399902
-0.07806120067834854 0.12065300345420837 0.05139990150928497
-0.06661269813776016 0.13302099704742432 0.04470440000295639
-0.07978910207748413 0.14375999569892883 0.04269940033555031
0.06830109655857086 0.14482800662517548 -1.0413688011467457
-0.08442620187997818 0.07977139949798584 0.018633199855685234
0.005931159947067499 0.13021500408649445 -1.0059540001675487
0.014218599535524845 0.17401300370693207 -0.9740193001925945
-0.009671010076999664 0.17322500050067902 -0.026494499295949936
0.010665600188076496 0.1675409972667694 -0.9800987001508474
0.005697600077837706 0.10588999837636948 0.04355109855532646
0.006786219775676727 0.11584100127220154 0.0388077013194561
-0.005982319824397564 0.1154090017080307 0.04020269960165024
0.014787600375711918 0.09097470343112946 0.0509658008813858
-0.01854429952800274 0.09481120109558105 -1.04775869846344
-0.01735679991543293 0.12761299312114716 0.005268849898129702
-0.05663739889860153 0.04701840132474899 0.030580900609493256
-0.05309100076556206 0.05674019828438759 0.02939629927277565
0.05727589875459671 0.04324299842119217 -1.0428620018064976
-0.047308601438999176 0.14515599608421326 0.006884689908474684
-0.04935299977660179 0.13929800689220428 0.014795499853789806
0.09114489704370499 0.11881600320339203 -1.0298442002385855
-0.09048639982938766 0.11861100047826767 0.041214801371097565
0.09120640158653259 0.131414994597435 -1.0295307002961636
0.005178549792617559 0.0931738018989563 0.05358729884028435
-0.08885160088539124 0.09097229689359665 0.01790340058505535
0.01751290075480938 0.16212600469589233 -0.9854511003941298
0.01784059964120388 0.1704840064048767 -0.9818856995552778
0.029727300629019737 0.04255019873380661 0.03049750067293644
0.043267298489809036 0.04582909867167473 0.02782510034739971
-0.03366420045495033 0.05405430123209953 -1.0350840985774994
-0.06795340031385422 0.04185879975557327 0.006683940067887306
0.05662839859724045 0.05470310151576996 -1.0074456301517785
-0.05941300094127655 0.04713819921016693 0.006285380106419325
-0.055677399039268494 0.09352059662342072 0.044206999242305756
-0.06868640333414078 0.0923703983426094 0.04219780117273331
-0.06830839812755585 0.08033160120248795 0.040710899978876114
-0.0678739994764328 0.1069519966840744 0.04037249833345413
-0.05549610033631325 0.10389800369739532 0.04114050045609474
0.006397940218448639 0.04370059818029404 0.04682600125670433
0.003767539979889989 0.04775509983301163 0.05020369961857796
0.006597320083528757 0.042728498578071594 -1.0469391010701656
0.005294309929013252 0.055679801851511 0.05328809842467308
-0.055893998593091965 0.07925940304994583 0.04353350028395653
0.00597407016903162 0.10589700192213058 -1.0440668985247612
0.0070872800424695015 0.06732179969549179 0.05533690005540848
0.007064850069582462 0.08119170367717743 0.055818699300289154
0.006072210147976875 0.06771019846200943 -1.0564500987529755
0.031221600249409676 0.1263040006160736 -1.0051492401398718
-0.005960070062428713 0.12250400334596634 -1.0346271991729736
-0.005625800229609013 0.05650379881262779 0.053881801664829254
0.04253790155053139 0.15544100105762482 -0.9925064700655639
0.037955500185489655 0.16195400059223175 -0.9871979001909494
-0.029482699930667877 0.1582929939031601 -0.006192659959197044
0.08825819939374924 0.0898687019944191 -1.0069662500172853
0.0381803996860981 0.10512100160121918 0.026694700121879578
-0.04008730128407478 0.10520999878644943 -1.0173419006168842
0.037043098360300064 0.11044300347566605 0.020722899585962296
0.07870320230722427 0.14427399635314941 -0.9961094800382853
-0.017614200711250305 0.038605500012636185 -0.005845080129802227
0.029912900179624557 0.038391198962926865 -0.994173230137676
0.017781099304556847 0.03825460001826286 -0.9845497002825141
0.007495860103517771 0.09835000336170197 0.048825498670339584
0.018869899213314056 0.11986199766397476 0.032409001141786575
-0.04271180182695389 0.042164500802755356 0.042700398713350296
-0.04319779947400093 0.05557769909501076 0.039083801209926605
-0.017520500347018242 0.055211398750543594 -0.9727244004607201
0.017565300688147545 0.06793390214443207 -0.02893880009651184
0.031738001853227615 0.06799829751253128 -0.01835319958627224
-0.04367680102586746 0.07891599833965302 0.04288550093770027
-0.0545307993888855 0.0714602991938591 0.03970419988036156
0.04319240152835846 0.09211540222167969 -1.0432689003646374
0.044163599610328674 0.10491800308227539 -1.0401705987751484
0.05618539825081825 0.11127699911594391 -1.0373713001608849
-0.04345890134572983 0.11719100177288055 0.03170439973473549
0.05394019931554794 0.11856599897146225 -1.0353730991482735
0.042771000415086746 0.05603510141372681 0.03155900165438652
0.04310379922389984 0.06743880361318588 -1.0407737009227276
0.04098400101065636 0.11049599945545197 -1.0370883010327816
0.0314703993499279 0.1570660024881363 -1.0009762159897946
0.04401009902358055 0.16703499853610992 -1.0023189799394459
0.036486998200416565 0.17122499644756317 -1.0005450369790196
-0.043641798198223114 0.16943800449371338 -0.005502259824424982
0.029624300077557564 0.05431880056858063 -1.039895098656416
-0.03318110108375549 0.045074399560689926 0.04511459916830063
-0.0312918983399868 0.07982979714870453 0.04349439963698387
0.02930689975619316 0.06807330250740051 -1.0410160012543201
-0.029862599447369576 0.09401240199804306 0.044480498880147934
-0.030180199071764946 0.10632199794054031 0.03997449949383736
-0.005999930202960968 0.07945480197668076 0.05780079960823059
-0.005981190130114555 0.09403079748153687 0.05426429957151413
0.04046289995312691 0.10514199733734131 0.0064097801223397255
-0.03873420134186745 0.1021609976887703 -0.9953688802197576
0.037011101841926575 0.11039700359106064 0.002652940107509494
0.03200550004839897 0.11046800017356873 -1.0370437987148762
0.03167539834976196 0.17039500176906586 -0.993649770040065
-0.018853800371289253 0.10629300028085709 -1.0416902005672455
-0.029280399903655052 0.041774701327085495 0.05139699950814247
0.04467739909887314 0.13120399415493011 -1.0057047898881137
0.05015239864587784 0.14032599329948425 -1.0025881798937917
0.04190700128674507 0.09163860231637955 -0.005569450091570616
-0.03580779954791069 0.09585940092802048 -0.9879671996459365
0.03327139839529991 0.1084979996085167 -0.007431949954479933
0.05744729936122894 0.1525759994983673 -1.0284508001059294
0.054003600031137466 0.05554300174117088 -1.0177673995494843
0.05734970048069954 0.043154798448085785 -1.020022900775075
-0.02141219936311245 0.05469759926199913 0.04464099928736687
-0.01773199997842312 0.04238640144467354 0.051683999598026276
0.01828799955546856 0.10832899808883667 -1.0415097996592522
0.019128499552607536 0.09859520196914673 -1.0456675998866558
0.020595500245690346 0.08711300045251846 0.04923250153660774
-0.01794159971177578 0.07927469909191132 -1.0518862009048462
-0.01720999926328659 0.1276630014181137 -1.0051259300671518
0.017318900674581528 0.04379419982433319 -1.0432695001363754
-0.06721799820661545 0.15615500509738922 0.017886299639940262
-0.07956869900226593 0.15287500619888306 0.029931100085377693
-0.06663300096988678 0.15383100509643555 0.03087029978632927
0.08832190185785294 0.10575699806213379 -1.017298299819231
-0.08542270213365555 0.10538599640130997 0.00339486007578671
0.08822929859161377 0.10606600344181061 -1.0084675597026944
0.020613500848412514 0.15977300703525543 -0.9928247798234224
-0.0567375011742115 0.05422240123152733 -1.0051248301751912
-0.05541969835758209 0.06863780319690704 -1.0058965301141143
0.05747479945421219 0.0682218000292778 0.01714250072836876
-0.058159101754426956 0.055001601576805115 -1.0180254001170397
-0.014317399822175503 0.11697100102901459 0.03783600032329559
-0.055658500641584396 0.04328659921884537 -0.0075883399695158005
-0.05554790049791336 0.03368160128593445 -0.006190130021423101
0.016148800030350685 0.057436298578977585 -1.0509039983153343
0.029557999223470688 0.16178299486637115 -0.9856631997972727
0.01692030020058155 0.06821680068969727 -1.053149901330471
0.018574800342321396 0.0789702981710434 -1.0557353012263775
-0.01728760078549385 0.09217739850282669 0.05362119898200035
-0.042279601097106934 0.06999439746141434 -0.016146300360560417
0.041251301765441895 0.07913780212402344 -0.9802253991365433
-0.03280559927225113 0.06646370142698288 -0.019521500915288925
0.025745199993252754 0.0459137000143528 0.038118500262498856
0.018421700224280357 0.0423181988298893 0.04247700050473213
-0.05389229953289032 0.05575469881296158 -1.0266244001686573
-0.05345829948782921 0.0656374990940094 -1.0264336001127958
0.04237240180373192 0.06725630164146423 0.029580099508166313
0.04182260110974312 0.06752009689807892 -0.005515549797564745
-0.04227240011096001 0.07955460250377655 -0.9942053901031613
0.04754139855504036 0.07121740281581879 0.005426169838756323
0.018642399460077286 0.05360350012779236 0.0462150014936924
0.030674800276756287 0.04451239854097366 -0.006179930176585913
0.029823999851942062 0.03591420128941536 0.004889769945293665
0.01747949980199337 0.03521310165524483 -0.00592856016010046
0.041678499430418015 0.04202760010957718 -0.9900032095611095
-0.05502849817276001 0.056655701249837875 -0.0053137498907744884
0.023332199081778526 0.18123899400234222 -0.9887106996029615
-0.029403800144791603 0.17903000116348267 -0.007879589684307575
-0.014577800408005714 0.05857690051198006 -1.0501690991222858
0.04470460116863251 0.09278769791126251 0.005075850058346987
-0.04369249939918518 0.0411968007683754 -1.0177200008183718
-0.051287200301885605 0.04639590159058571 -1.0058053098618984
-0.053250398486852646 0.047589998692274094 -1.018190300092101
-0.04344610124826431 0.15604999661445618 0.006157950032502413
-0.06690440326929092 0.11571700125932693 0.04734789952635765
0.029877599328756332 0.06799360364675522 0.04191720113158226
-0.021052399650216103 0.06811609864234924 -1.0484346002340317
0.04593849927186966 0.07963070273399353 0.005796319805085659
0.019880099222064018 0.16640399396419525 -0.9887300999835134
-0.059435900300741196 0.1199050024151802 0.0399755984544754
0.02862289920449257 0.05687600001692772 0.040763501077890396
-0.05951090157032013 0.12835200130939484 0.03996260091662407
0.03672479838132858 0.09181839972734451 0.03662480041384697
0.033051300793886185 0.10703399777412415 0.03195429965853691
0.0300137996673584 0.09327860176563263 0.042147599160671234
0.02023259922862053 0.1818459928035736 -0.9816725999116898
0.052037399262189865 0.055073000490665436 -0.002481600036844611
0.041463300585746765 0.04563010111451149 -0.003545129904523492
-0.04280490055680275 0.055328600108623505 -0.9939529597759247
0.027238400653004646 0.10315600037574768 0.039705801755189896
0.025003299117088318 0.11061099916696548 0.03684590011835098
0.05694720149040222 0.034941598773002625 -1.0423717014491558
0.056830499321222305 0.14639200270175934 -0.9973573999013752
-0.04698700085282326 0.14743399620056152 -0.0022253599017858505
0.03068399988114834 0.07954610139131546 0.04315070062875748
-0.03718879818916321 0.07924839854240417 -1.036793701350689
0.044262200593948364 0.09345260262489319 0.01764170080423355
0.046032000333070755 0.07936940342187881 0.017769400030374527
-0.015029399655759335 0.0677357017993927 -1.0520671010017395
-0.01072620041668415 0.17966200411319733 -0.027747200801968575
-0.02618579939007759 0.05688359960913658 -0.02826940082013607
-0.029902400448918343 0.04260310158133507 -0.028317900374531746
0.030738500878214836 0.05633069947361946 -0.9814829993993044
0.041802000254392624 0.10593400150537491 -0.9801307991147041
-0.09092500060796738 0.14605000615119934 0.01903820037841797
0.05592469871044159 0.15760600566864014 -1.006564550101757
0.03683580085635185 0.06784950196743011 0.03664100170135498
0.07023320347070694 0.1542620062828064 -0.9687598999589682
-0.061861999332904816 0.1584170013666153 -0.029302600771188736
0.0684972032904625 0.14819400012493134 -0.9712739996612072
0.04193659871816635 0.07959110289812088 0.02959110029041767
0.041234299540519714 0.09217309951782227 0.028560299426317215
0.04636929929256439 0.07151280343532562 0.02167540043592453
0.06771119683980942 0.09289179742336273 -0.983118599280715
0.07566600292921066 0.09118170291185379 -0.986303299665451
0.07954689860343933 0.10419400036334991 -0.9937972598709166
0.019134800881147385 0.042782001197338104 -0.019209500402212143
0.022619100287556648 0.040605198591947556 -0.00793544016778469
-0.014751999638974667 0.18189699947834015 -0.026278100907802582
-0.0435543991625309 0.041110098361968994 -1.005799159873277
0.09145130217075348 0.13413600623607635 -1.017102599143982
0.05545080080628395 0.13242000341415405 -0.9951455499976873
0.02731419913470745 0.11796499788761139 0.028619099408388138
-0.037703901529312134 0.16798700392246246 -0.013039099983870983
0.028473300859332085 0.038148898631334305 -1.004418530035764
0.07637730240821838 0.1572210043668747 -0.9831111002713442
-0.076425701379776 0.16170699894428253 -0.029751699417829514
0.041315898299217224 0.09069229662418365 -0.977411899715662
0.03551439940929413 0.08180099725723267 -0.9773113001137972
0.06809619814157486 0.15672099590301514 -0.9573826007544994
0.04290260002017021 0.056189700961112976 -0.9886956997215748
-0.03466939926147461 0.057124000042676926 -0.011495299637317657
-0.0893322005867958 0.1427450031042099 0.029032599180936813
-0.08852609992027283 0.13783900439739227 0.03939640149474144
-0.08933030068874359 0.1283089965581894 0.04280230030417442
0.026038099080324173 0.04759019985795021 -0.01657940074801445
-0.08242200314998627 0.09511210024356842 0.031087800860404968
-0.08060260117053986 0.08144699782133102 0.030651599168777466
0.04280240088701248 0.035157401114702225 -1.0416872017085552
-0.04194039851427078 0.03436980023980141 0.029966799542307854
-0.09068679809570312 0.12030500173568726 0.006680400110781193
-0.005819879937916994 0.10622599720954895 -0.9791032001376152
-0.00597053999081254 0.10613799840211868 -0.022228199988603592
-0.005886760074645281 0.11662200093269348 -0.0160048995167017
0.06959520280361176 0.14641200006008148 -0.9819680005311966
-0.06250870227813721 0.14993399381637573 -0.015031900256872177
-0.09314659982919693 0.1190669983625412 0.017994800582528114
-0.016214100643992424 0.0358474999666214 -0.9837868995964527
0.08187209814786911 0.10716599971055984 -1.0310159996151924
-0.08558580279350281 0.10683999955654144 0.0217289999127388
0.08691520243883133 0.09441559761762619 -1.0029311799444258
-0.038145601749420166 0.08810559660196304 -0.9861324997618794
0.03168420121073723 0.07850869745016098 -0.019207999110221863
0.08699239790439606 0.11351799964904785 -1.004104089923203
-0.00524266017600894 0.039133600890636444 -0.9780529998242855
0.01932479999959469 0.035832200199365616 0.03132060170173645
0.061795998364686966 0.15574100613594055 -0.9792077001184225
-0.06408219784498215 0.15939100086688995 -0.01690959930419922
-0.029518000781536102 0.05605639889836311 -0.9824125003069639
0.02181209996342659 0.05158650130033493 -0.023649200797080994
-0.03794509917497635 0.08171670138835907 -0.9858453003689647
0.034112799912691116 0.054177600890398026 -0.0094834603369236
0.005599789787083864 0.034660398960113525 -0.017931800335645676
-0.017873000353574753 0.038316600024700165 0.005994710139930248
-0.06886950135231018 0.1577730029821396 -0.006875929888337851
0.0315483994781971 0.034302301704883575 -0.9715918991714716
-0.04178379848599434 0.03576020151376724 -0.026410700753331184
-0.03839069977402687 0.04192179813981056 -0.026403900235891342
0.0664416030049324 0.15995700657367706 -0.9466287009418011
0.06200369819998741 0.16742199659347534 -0.947283498942852
0.06569869816303253 0.17100700736045837 -0.9433559998869896
-0.07054329663515091 0.1498969942331314 -0.038731899112463
-0.06739670038223267 0.1552560031414032 0.005813890136778355
0.07617069780826569 0.1555590033531189 -0.9940728000365198
-0.07899399846792221 0.15398399531841278 0.006518620066344738
0.08173560351133347 0.15439000725746155 -1.0177331995218992
0.07935170084238052 0.07985589653253555 -0.9935943498276174
-0.07358189672231674 0.077702596783638 -0.012202300131320953
-0.06814099848270416 0.0801227018237114 -0.016427800059318542
-0.044095899909734726 0.1274529993534088 -0.003278749994933605
-0.030587900429964066 0.12238399684429169 -0.006357709877192974
-0.07639770209789276 0.17129099369049072 -0.041102100163698196
0.07605289667844772 0.17765100300312042 -0.9528543017804623
-0.030419299378991127 0.11857199668884277 -1.0188068002462387
-0.018401499837636948 0.12221899628639221 -0.0077513400465250015
-0.030417300760746002 0.11849500238895416 -1.0057381400838494
0.0719676986336708 0.1778479963541031 -0.9525396004319191
0.06922630220651627 0.17892199754714966 -0.9457257017493248
0.06442669779062271 0.0414590984582901 -1.0304476004093885
0.06428369879722595 0.03964180126786232 -1.0396240018308163
0.028574099764227867 0.11690899729728699 -0.003917720168828964
-0.02548149973154068 0.07986970245838165 0.05105460062623024
-0.02542009949684143 0.08866219967603683 0.05038269981741905
-0.07602710276842117 0.1757040023803711 -0.05069369822740555
-0.023383399471640587 0.06564159691333771 0.04509760066866875
-0.0561164990067482 0.06543289870023727 0.03419790044426918
0.048809099942445755 0.06601270288228989 -1.0373958982527256
0.018974900245666504 0.12150599807500839 -0.006945650093257427
-0.06640589982271194 0.03436490148305893 -0.004166679922491312
-0.06567870080471039 0.04083320125937462 -0.004017930012196302
-0.048003800213336945 0.056366000324487686 0.036266300827264786
-0.07626970112323761 0.09122449904680252 0.03834189847111702
0.08485230058431625 0.1340779960155487 -1.0470177009701729
0.08330550044775009 0.11564300209283829 -1.0468280017375946
-0.03101390041410923 0.09306959807872772 -0.9822020009160042
0.017700400203466415 0.10598299652338028 -0.018613800406455994
-0.02026679925620556 0.09286099672317505 -0.9762637000530958
0.03222940117120743 0.04465930163860321 -0.9832501001656055
-0.06505409628152847 0.035325899720191956 0.01622370071709156
-0.06759999692440033 0.03402990102767944 0.005904910154640675
-0.06476759910583496 0.03507919982075691 0.029448099434375763
-0.06431999802589417 0.03522609919309616 0.03879139944911003
-0.06346320360898972 0.04143210127949715 0.014205199666321278
-0.029852300882339478 0.1709049940109253 -0.01656089909374714
0.08482660353183746 0.14898699522018433 -1.0327696986496449
0.05281909927725792 0.162649005651474 -1.0029671099036932
0.02939319983124733 0.17853599786758423 -0.9854437001049519
-0.017909100279211998 0.0385902002453804 0.0296167004853487
-0.0309727992862463 0.07947009801864624 -0.031247500330209732
-0.017788700759410858 0.11591099947690964 -0.015783799812197685
-0.017795300111174583 0.10628899931907654 -0.02177710086107254
-0.02939870022237301 0.11591699719429016 -0.014706499874591827
0.005790700204670429 0.12807700037956238 -0.9971489498857409
-0.006265560165047646 0.12804700434207916 -0.9968294999562204
-0.00762538006529212 0.12327300012111664 -0.009815550409257412
-0.0003857139963656664 0.03514590114355087 0.013417099602520466
-0.005360220093280077 0.03459560126066208 -1.0179871004074812
-0.005897909868508577 0.038178201764822006 0.01770620048046112
0.007026270031929016 0.09784179925918579 -0.02460549958050251
-0.005309879779815674 0.09331289678812027 -0.9698147997260094
0.029079200699925423 0.06742600351572037 -0.9709479007869959
-0.007534469943493605 0.03555959835648537 -0.9934993698261678
0.0010352799436077476 0.03759169951081276 0.0009522219770587981
0.0043043699115514755 0.03840170055627823 -0.007175399921834469
0.0824270024895668 0.0928134024143219 -0.9944395399652421
0.015161599963903427 0.12610399723052979 -0.0026639499701559544
0.005327320192009211 0.12366099655628204 -0.00997104961425066
-0.017760800197720528 0.034331899136304855 -0.025914199650287628
-0.01611809991300106 0.11563000082969666 -0.9854549001902342
0.0073251500725746155 0.11824300140142441 -0.01530119962990284
-0.016863999888300896 0.08993499726057053 -0.973089599981904
0.0687628984451294 0.0686694011092186 -0.9934505899436772
-0.07736869901418686 0.07325710356235504 -0.004097709897905588
0.08113119751214981 0.1179720014333725 -0.9964054699521512
-0.07237350195646286 0.11005699634552002 -0.009432570077478886
-0.05325470119714737 0.15745599567890167 -0.0028189599979668856
-0.019332800060510635 0.0979250967502594 -0.024792000651359558
0.018411800265312195 0.09480589628219604 -0.9692566003650427
0.07305040210485458 0.065420001745224 -1.0055285901762545
0.00632139015942812 0.09316519647836685 -0.9671064987778664
-0.05148709937930107 0.06372790038585663 -0.9982520600315183
-0.01488920021802187 0.12606799602508545 -0.002521259943023324
-0.02857770025730133 0.1051810011267662 -0.9857619004324079
0.027153700590133667 0.03516079857945442 -1.0509267002344131
-0.030782600864768028 0.03475959971547127 0.04329590126872063
0.014447799883782864 0.08792740106582642 -0.9619702994823456
-0.01930359937250614 0.0810128003358841 -0.0384318009018898
0.05494479835033417 0.10634800046682358 -0.9814375005662441
-0.06646200269460678 0.10477700084447861 -0.014858200214803219
-0.06643520295619965 0.11719799786806107 -0.009871610440313816
0.0552189014852047 0.11746100336313248 -0.9866255996748805
0.016192400828003883 0.08047900348901749 -0.029217399656772614
-0.02491380088031292 0.08251629769802094 -0.9754122998565435
-0.01731570065021515 0.043267399072647095 -0.028290599584579468
0.005189389921724796 0.043046001344919205 -0.9726666994392872
0.04095650091767311 0.11716800183057785 -0.985419100150466
0.05521810054779053 0.12250600010156631 -0.99053511954844
-0.04125170037150383 0.12319599837064743 -0.009580870158970356
-0.024898799136281013 0.08150040358304977 -0.03710779920220375
-0.05697320029139519 0.06516280025243759 -0.009582189843058586
0.05558599904179573 0.07229830324649811 -0.9838782008737326
-0.05452520027756691 0.08084779977798462 -0.020170699805021286
-0.06378839910030365 0.0712696984410286 -0.013853499665856361
0.055365901440382004 0.091982901096344 -0.9788217004388571
-0.014325300231575966 0.047348398715257645 -0.9748487006872892
0.02072340063750744 0.06727930158376694 -0.9634470008313656
-0.006251929793506861 0.04596230015158653 -0.9736218005418777
0.006040859967470169 0.055507298558950424 -0.03043139912188053
-0.005655799992382526 0.06762369722127914 -0.9670801013708115
-0.005685610231012106 0.07905469834804535 -0.9660811014473438
-0.02618980035185814 0.0377591997385025 0.017704399302601814
0.006902370136231184 0.03463999927043915 -0.9797828998416662
-0.00613413006067276 0.05463720113039017 -0.032634999603033066
-0.006845430005341768 0.06797420233488083 -0.03594059869647026
-0.0033842900302261114 0.080451101064682 -0.03672260046005249
0.00953660998493433 0.07941039651632309 -0.9620141014456749
0.019065799191594124 0.05466949939727783 -0.9681354016065598
0.01757190003991127 0.07054729759693146 -0.9617738984525204
0.01806199923157692 0.03526270017027855 -0.980459900572896
-0.001141140004619956 0.037661001086235046 -1.022341400384903
0.07841770350933075 0.11012600362300873 -1.041788600385189
0.0058333901688456535 0.035107601433992386 0.04209139943122864
-0.015243000350892544 0.0356115996837616 -1.041269201785326
0.018922200426459312 0.035107601433992386 0.004997690208256245
0.028661999851465225 0.03584109991788864 0.018749600276350975
-0.01932240091264248 0.035181399434804916 -1.0196615997701883
0.005501269828528166 0.03855559974908829 0.029660899192094803
0.005965809803456068 0.03889460116624832 -1.029925199225545
0.01834069937467575 0.03523619845509529 -1.0507938005030155
-0.018083399161696434 0.034814201295375824 0.04587719962000847
-0.010025300085544586 0.035502899438142776 -1.0296560004353523
-0.0009470059885643423 0.03573739901185036 0.01034689974039793
-0.0058471402153372765 0.03834189847111702 0.0059080300852656364
0.005939349997788668 0.038947999477386475 -0.9940787102095783
-0.005120660178363323 0.034839801490306854 -1.0055849798955023
0.017807800322771072 0.038196198642253876 -1.0178114008158445
0.00654911994934082 0.03503720089793205 -1.0453958995640278
-0.0334119014441967 0.03761789947748184 -1.0210081990808249
0.006020340137183666 0.03812370076775551 -0.9854816002771258
0.07298929989337921 0.06561160087585449 -1.0181693006306887
0.07734359800815582 0.07272259891033173 -1.0266545992344618
-0.06605149805545807 0.06111440062522888 0.005855480208992958
0.06553959846496582 0.06078850105404854 -1.0175707004964352
0.0688014030456543 0.06857260316610336 -1.0306649003177881
0.05502599850296974 0.03362039849162102 -1.0058381599374115
0.06353799998760223 0.07166499644517899 -1.0379462987184525
-0.05632470175623894 0.03367619961500168 0.017526499927043915
0.0554300993680954 0.034255500882864 -1.0297951996326447
-0.04303079843521118 0.03413910046219826 -0.005659719929099083
0.042462099343538284 0.03431440144777298 -1.0059059699997306
-0.03157699853181839 0.035848699510097504 -0.017966900020837784
0.034232500940561295 0.03375900164246559 -1.0071751698851585
3 0 1 2
3 3 4 5
3 6 7 8
3 9 10 11
3 12 13 14
3 12 15 1
3 16 13 17
3 18 19 20
3 21 22 23
3 24 25 26
3 1 20 27
3 28 12 14
3 16 14 13
3 29 30 31
3 32 33 34
3 35 16 22
3 36 37 38
3 39 40 3
3 41 42 43
3 44 28 35
3 45 46 47
3 48 45 47
3 47 49 50
3 49 51 50
3 37 52 38
3 53 12 28
3 22 16 17
3 54 55 56
3 57 58 59
3 12 1 0
3 60 61 57
3 62 15 12
3 63 64 65
3 66 32 67
3 68 69 70
3 71 60 57
3 52 72 38
3 73 74 56
3 75 76 77
3 78 79 80
3 81 82 83
3 81 84 82
3 81 85 84
3 86 87 88
3 86 89 87
3 90 81 83
3 62 12 53
3 91 57 59
3 92 93 94
3 62 95 15
3 58 96 17
3 87 89 97
3 88 87 97
3 98 99 100
3 72 101 38
3 13 0 2
3 102 103 104
3 42 105 43
3 106 107 108
3 109 57 71
3 96 58 110
3 12 0 13
3 111 63 65
3 112 64 63
3 113 114 115
3 116 90 117
3 116 118 81
3 90 116 81
3 119 85 81
3 118 119 81
3 119 120 85
3 119 121 122
3 120 119 122
3 76 123 77
3 111 112 63
3 44 53 28
3 117 124 116
3 119 125 121
3 98 100 126
3 127 128 129
3 130 112 111
3 131 130 111
3 130 124 112
3 132 116 124
3 133 132 124
3 132 134 118
3 116 132 118
3 134 119 118
3 134 135 119
3 119 2 125
3 125 2 121
3 136 93 137
3 133 124 130
3 138 139 140
3 141 2 119
3 135 141 119
3 128 142 129
3 35 28 16
3 28 14 16
3 93 136 94
3 59 58 17
3 143 58 57
3 135 2 141
3 144 130 131
3 145 146 66
3 147 148 149
3 33 150 34
3 64 151 152
3 153 130 144
3 154 153 144
3 155 135 134
3 156 155 134
3 13 2 135
3 155 13 135
3 157 60 158
3 35 21 159
3 154 160 153
3 161 162 163
3 164 165 166
3 22 17 96
3 44 35 159
3 100 73 167
3 168 169 170
3 164 166 165
3 171 168 170
3 21 35 22
3 172 13 155
3 61 143 57
3 89 92 94
3 173 6 174
3 97 89 94
3 160 175 153
3 176 73 100
3 154 88 160
3 88 97 175
3 160 88 175
3 97 94 177
3 175 97 177
3 94 136 178
3 177 94 178
3 137 179 178
3 136 137 178
3 91 59 155
3 59 172 155
3 17 13 172
3 59 17 172
3 71 57 109
3 180 181 182
3 183 184 75
3 93 71 137
3 64 63 65
3 185 186 187
3 123 185 187
3 188 189 190
3 86 184 191
3 192 193 194
3 195 173 196
3 197 198 142
3 191 199 89
3 147 139 200
3 201 202 203
3 66 204 32
3 158 60 93
3 205 45 84
3 49 46 45
3 171 185 203
3 49 45 205
3 206 207 191
3 147 200 208
3 74 142 209
3 145 66 67
3 210 205 84
3 210 49 205
3 183 77 211
3 210 212 49
3 212 210 49
3 210 212 49
3 142 128 127
3 213 214 215
3 120 210 84
3 122 120 84
3 18 49 212
3 34 51 49
3 18 34 49
3 216 197 198
3 216 197 142
3 217 218 219
3 120 122 210
3 143 220 221
3 111 65 222
3 216 198 197
3 74 209 167
3 210 122 212
3 122 18 212
3 223 224 146
3 211 191 184
3 157 61 60
3 191 89 86
3 74 216 142
3 202 168 171
3 215 61 157
3 203 202 171
3 214 110 221
3 215 157 158
3 215 220 143
3 225 215 158
3 226 213 225
3 122 19 18
3 200 227 228
3 189 147 208
3 213 215 225
3 229 158 93
3 200 139 138
3 215 214 220
3 167 142 100
3 92 229 93
3 121 19 122
3 230 56 55
3 231 232 233
3 89 199 229
3 10 234 11
3 211 206 191
3 235 30 29
3 138 103 227
3 170 186 185
3 171 170 185
3 74 56 216
3 204 236 32
3 237 226 206
3 238 239 240
3 75 77 183
3 241 242 213
3 226 241 213
3 229 92 89
3 228 241 243
3 213 242 214
3 241 226 237
3 208 200 228
3 139 149 140
3 76 185 123
3 199 191 229
3 120 122 84
3 187 237 77
3 242 102 214
3 187 241 237
3 123 187 77
3 56 230 216
3 229 207 158
3 244 245 246
3 247 248 194
3 226 225 206
3 214 221 220
3 164 166 101
3 209 142 167
3 216 230 249
3 243 241 187
3 143 110 58
3 189 208 190
3 250 193 218
3 60 71 93
3 251 235 29
3 221 110 143
3 183 211 184
3 252 146 145
3 225 158 207
3 142 127 204
3 167 73 74
3 191 207 229
3 237 206 211
3 77 237 211
3 215 143 61
3 253 110 214
3 100 204 126
3 100 142 204
3 217 168 202
3 218 217 202
3 99 254 176
3 206 225 207
3 84 85 120
3 106 255 107
3 72 164 101
3 204 224 98
3 256 4 257
3 258 259 181
3 260 239 238
3 39 3 239
3 261 180 262
3 50 263 264
3 39 239 260
3 69 265 70
3 266 192 248
3 101 166 165
3 267 52 268
3 25 269 270
3 251 29 271
3 272 273 274
3 43 275 276
3 277 251 271
3 20 145 67
3 278 247 194
3 279 164 280
3 279 68 164
3 56 74 73
3 281 101 165
3 31 105 42
3 282 147 189
3 115 188 219
3 188 283 189
3 165 166 284
3 285 247 278
3 277 68 251
3 147 149 139
3 68 70 251
3 286 75 184
3 200 138 227
3 70 263 251
3 287 288 276
3 289 290 113
3 188 115 283
3 275 287 276
3 251 263 235
3 260 40 39
3 238 288 287
3 166 164 271
3 240 239 275
3 164 277 271
3 283 291 189
3 291 282 189
3 239 238 287
3 239 287 275
3 289 115 292
3 285 278 293
3 284 166 271
3 63 64 152
3 294 255 106
3 5 4 256
3 289 292 192
3 98 126 204
3 288 295 43
3 276 288 43
3 296 297 298
3 266 289 192
3 115 219 292
3 227 242 241
3 228 227 241
3 227 103 242
3 103 102 242
3 32 34 18
3 299 300 40
3 247 266 248
3 260 299 40
3 300 301 40
3 8 174 6
3 299 301 300
3 238 240 302
3 20 67 32
3 303 304 305
3 33 163 150
3 51 34 163
3 236 33 32
3 5 295 288
3 170 187 186
3 170 243 187
3 238 302 260
3 170 228 243
3 190 170 169
3 306 235 162
3 162 235 263
3 208 228 170
3 190 208 170
3 150 163 34
3 307 308 309
3 310 145 95
3 145 20 95
3 33 161 163
3 20 15 95
3 310 95 311
3 20 32 18
3 40 312 3
3 15 20 1
3 5 288 238
3 3 5 238
3 198 129 142
3 305 306 161
3 40 313 312
3 27 19 121
3 295 5 256
3 51 162 50
3 163 162 51
3 104 314 214
3 315 95 62
3 103 314 104
3 20 19 27
3 305 30 306
3 30 235 306
3 138 316 103
3 316 314 103
3 317 40 318
3 314 253 214
3 2 27 121
3 1 27 2
3 140 316 138
3 317 313 40
3 318 40 301
3 149 316 140
3 305 161 303
3 161 306 162
3 319 63 152
3 303 161 33
3 21 253 314
3 21 110 253
3 57 137 71
3 303 33 236
3 295 304 303
3 159 21 314
3 316 159 314
3 317 318 313
3 21 23 110
3 320 65 319
3 159 316 321
3 23 96 110
3 91 156 137
3 137 156 179
3 23 22 96
3 214 102 104
3 322 323 132
3 313 318 324
3 224 204 66
3 153 177 325
3 326 124 327
3 321 328 159
3 99 98 129
3 173 329 330
3 179 134 323
3 295 256 304
3 153 175 177
3 132 178 322
3 322 178 179
3 129 254 99
3 130 153 133
3 153 325 133
3 49 47 46
3 331 124 326
3 64 331 326
3 82 332 83
3 333 47 50
3 334 48 69
3 177 178 132
3 48 265 69
3 179 156 134
3 64 112 331
3 83 332 268
3 335 336 337
3 323 134 132
3 262 233 338
3 48 47 333
3 265 48 333
3 322 179 323
3 338 261 262
3 339 78 340
3 320 319 341
3 52 267 72
3 342 320 341
3 325 177 132
3 99 176 100
3 91 137 57
3 333 50 264
3 343 78 339
3 332 82 267
3 254 344 176
3 345 162 263
3 133 325 132
3 343 80 78
3 331 112 124
3 267 82 279
3 204 346 236
3 343 152 80
3 347 216 344
3 348 160 24
3 50 345 263
3 9 349 259
3 223 252 43
3 152 343 339
3 152 79 80
3 333 264 265
3 268 332 267
3 346 204 127
3 152 151 79
3 289 113 290
3 301 324 318
3 40 312 301
3 301 312 324
3 324 312 313
3 299 40 301
3 350 351 352
3 299 260 40
3 181 259 182
3 260 312 40
3 353 354 355
3 238 260 302
3 260 3 312
3 356 357 358
3 238 257 260
3 260 257 3
3 257 4 312
3 3 257 312
3 347 198 216
3 359 272 360
3 6 297 7
3 6 298 297
3 233 182 361
3 231 233 361
3 182 259 349
3 361 182 349
3 349 181 259
3 353 355 315
3 275 256 238
3 238 256 257
3 265 264 263
3 362 363 364
3 338 6 261
3 70 265 263
3 79 78 80
3 258 234 10
3 9 258 10
3 274 273 350
3 6 338 233
3 307 365 245
3 309 307 245
3 365 246 245
3 308 307 309
3 43 105 256
3 275 43 256
3 105 304 256
3 129 344 142
3 129 198 344
3 366 328 367
3 354 366 367
3 164 279 280
3 254 129 344
3 368 296 232
3 259 258 9
3 328 369 370
3 367 328 370
3 337 371 336
3 3 238 239
3 372 373 307
3 374 375 246
3 376 129 98
3 377 378 351
3 338 233 232
3 80 173 330
3 80 79 173
3 79 196 173
3 379 36 373
3 372 379 373
3 36 38 307
3 373 36 307
3 38 101 365
3 307 38 365
3 101 281 365
3 281 165 365
3 165 246 365
3 165 374 246
3 165 271 374
3 271 29 374
3 29 42 374
3 29 31 42
3 31 30 105
3 30 305 105
3 305 304 105
3 236 346 376
3 346 127 129
3 376 346 129
3 319 65 63
3 78 79 80
3 180 182 233
3 262 180 233
3 165 284 271
3 72 267 279
3 80 79 78
3 252 223 146
3 273 360 380
3 335 282 283
3 381 169 217
3 78 80 330
3 382 353 315
3 273 272 360
3 328 336 369
3 148 147 335
3 139 149 335
3 383 149 335
3 384 144 385
3 149 383 336
3 149 139 335
3 232 298 6
3 159 328 366
3 354 367 355
3 149 328 321
3 344 129 142
3 336 383 335
3 272 359 360
3 44 159 354
3 149 148 335
3 303 43 295
3 95 315 311
3 303 223 43
3 328 149 336
3 223 303 236
3 380 386 378
3 376 223 236
3 338 6 233
3 378 377 351
3 386 387 378
3 315 355 350
3 388 389 390
3 391 388 390
3 352 351 11
3 74 54 56
3 371 335 392
3 369 336 370
3 370 336 272
3 53 354 353
3 315 350 352
3 311 315 352
3 335 393 392
3 62 382 315
3 394 395 368
3 273 351 350
3 355 274 350
3 296 298 232
3 366 354 159
3 147 282 335
3 396 391 397
3 391 396 397
3 355 367 274
3 338 232 6
3 310 398 397
3 252 310 397
3 396 234 391
3 234 388 391
3 53 353 382
3 378 9 11
3 381 219 188
3 62 53 382
3 310 252 145
3 396 391 397
3 398 396 397
3 351 378 11
3 344 198 347
3 169 168 217
3 316 149 321
3 53 44 354
3 335 337 336
3 3 312 4
3 173 174 329
3 367 370 274
3 336 371 360
3 272 336 360
3 273 380 351
3 381 188 190
3 169 381 190
3 217 219 381
3 26 25 270
3 380 378 351
3 311 398 310
3 398 311 396
3 311 352 396
3 11 234 396
3 352 11 396
3 399 9 378
3 400 401 180
3 349 259 181
3 218 192 219
3 192 292 219
3 181 402 258
3 376 98 224
3 403 401 400
3 372 403 400
3 198 197 216
3 403 309 401
3 372 400 196
3 404 388 234
3 375 374 390
3 180 402 181
3 371 337 335
3 335 283 393
3 218 202 250
3 194 248 192
3 247 290 289
3 266 247 289
3 290 113 289
3 392 283 115
3 114 392 115
3 283 392 393
3 195 261 6
3 244 245 389
3 372 309 403
3 42 41 390
3 245 244 389
3 247 113 290
3 389 246 375
3 329 78 330
3 247 290 113
3 247 405 290
3 290 405 113
3 223 376 224
3 374 42 390
3 336 335 337
3 282 291 283
3 397 391 390
3 406 231 361
3 285 407 405
3 247 285 405
3 405 407 113
3 407 408 113
3 408 409 114
3 113 408 114
3 410 392 114
3 409 410 114
3 410 360 392
3 360 371 392
3 400 180 261
3 196 400 261
3 244 246 389
3 389 375 390
3 245 244 309
3 41 43 252
3 155 156 91
3 294 411 255
3 196 261 195
3 180 401 402
3 41 252 397
3 412 395 285
3 293 412 285
3 395 407 285
3 407 395 408
3 395 413 408
3 413 414 409
3 408 413 409
3 414 415 410
3 409 414 410
3 380 360 410
3 415 380 410
3 370 272 274
3 390 41 397
3 329 330 173
3 84 279 82
3 414 416 415
3 416 380 415
3 389 388 404
3 244 389 404
3 279 164 72
3 387 386 380
3 416 387 380
3 249 230 55
3 54 249 55
3 394 417 413
3 395 394 413
3 413 417 414
3 417 406 414
3 406 418 414
3 418 387 416
3 414 418 416
3 309 404 402
3 402 404 258
3 309 244 404
3 173 330 329
3 340 78 329
3 309 402 401
3 385 269 25
3 216 249 54
3 74 216 54
3 258 404 234
3 412 419 368
3 195 6 173
3 341 319 152
3 307 309 372
3 341 152 339
3 368 232 394
3 231 417 394
3 231 406 417
3 361 406 417
3 406 361 417
3 399 387 418
3 406 399 418
3 344 74 73
3 74 344 216
3 378 387 399
3 250 202 201
3 73 176 344
3 232 231 394
3 113 115 289
3 349 399 406
3 361 349 406
3 349 387 399
3 387 349 399
3 349 9 399
3 154 144 384
3 420 358 357
3 279 84 421
3 184 86 422
3 423 184 422
3 424 425 426
3 420 427 358
3 427 428 358
3 429 154 384
3 193 425 424
3 26 411 24
3 429 384 430
3 193 424 194
3 286 431 427
3 431 286 427
3 164 68 277
3 194 362 278
3 345 50 162
3 432 356 358
3 433 294 434
3 194 435 362
3 425 286 426
3 364 433 434
3 425 75 286
3 286 431 357
3 430 384 385
3 286 184 423
3 357 427 420
3 348 24 436
3 426 286 357
3 437 88 154
3 201 75 438
3 154 429 430
3 364 434 439
3 293 362 285
3 279 421 68
3 68 421 69
3 285 364 439
3 201 438 425
3 146 224 66
3 439 106 108
3 218 193 192
3 433 436 294
3 69 421 334
3 76 75 201
3 108 107 338
3 278 362 293
3 412 293 439
3 428 88 160
3 419 412 108
3 205 84 45
3 302 240 238
3 385 131 111
3 379 440 36
3 36 440 37
3 37 441 52
3 52 441 268
3 428 436 358
3 421 48 334
3 379 442 440
3 442 443 440
3 424 435 194
3 372 442 379
3 444 268 441
3 440 441 37
3 435 432 433
3 440 444 441
3 205 421 84
3 421 205 48
3 76 203 185
3 88 437 422
3 362 435 363
3 196 79 372
3 372 79 442
3 434 294 106
3 286 423 422
3 444 83 268
3 436 411 294
3 412 439 108
3 431 427 357
3 443 444 440
3 385 111 269
3 79 151 442
3 442 151 443
3 445 340 329
3 174 445 329
3 444 446 83
3 203 76 201
3 445 339 340
3 64 443 151
3 64 444 443
3 447 339 445
3 438 75 425
3 64 326 444
3 364 363 433
3 240 275 238
3 368 395 412
3 7 174 8
3 111 222 269
3 326 117 444
3 444 117 446
3 446 117 83
3 356 357 358
3 448 341 339
3 447 448 339
3 435 357 356
3 117 90 83
3 432 435 356
3 357 356 358
3 449 174 7
3 433 432 358
3 450 445 174
3 449 450 174
3 88 422 86
3 385 144 131
3 286 422 431
3 285 362 364
3 296 7 297
3 448 342 341
3 434 106 439
3 436 24 411
3 222 342 448
3 250 425 193
3 428 160 348
3 437 154 430
3 451 7 296
3 342 222 320
3 195 449 7
3 451 195 7
3 222 65 320
3 451 338 7
3 338 451 7
3 338 195 451
3 195 107 449
3 205 45 48
3 327 117 326
3 124 117 327
3 107 195 338
3 201 425 250
3 293 285 439
3 270 222 448
3 270 269 222
3 358 436 433
3 363 435 433
3 419 451 296
3 368 419 296
3 108 338 451
3 419 108 451
3 428 348 436
3 26 450 452
